<?xml version="1.0" standalone="no"?>
<!DOCTYPE svg PUBLIC "-//W3C//DTD SVG 20010904//EN"
 "http://www.w3.org/TR/2001/REC-SVG-20010904/DTD/svg10.dtd">
<svg version="1.0" xmlns="http://www.w3.org/2000/svg"
 width="300.000000pt" height="300.000000pt" viewBox="0 0 300.000000 300.000000"
 preserveAspectRatio="xMidYMid meet">
<metadata>
Created by potrace 1.10, written by Peter Selinger 2001-2011
</metadata>
<g transform="translate(0.000000,300.000000) scale(0.100000,-0.100000)"
fill="#000000" stroke="none">
<path d="M800 1535 l0 -255 55 0 55 0 0 93 0 93 44 12 c108 29 151 167 79 253
-37 43 -80 59 -163 59 l-70 0 0 -255z"/>
<path d="M1160 1535 l0 -258 84 5 c90 5 123 18 152 63 35 54 12 147 -45 181
l-30 18 29 17 c68 42 78 136 21 193 -30 29 -36 31 -121 34 l-90 4 0 -257z"/>
<path d="M1510 1535 l0 -255 120 0 120 0 0 55 0 55 -60 0 -60 0 0 200 0 200
-60 0 -60 0 0 -255z"/>
<path d="M1912 1764 c-116 -58 -169 -187 -130 -315 36 -121 183 -195 310 -157
50 15 122 78 151 132 30 57 30 165 0 222 -66 125 -212 177 -331 118z m176
-104 c34 -21 72 -87 72 -125 0 -38 -38 -104 -72 -125 -65 -39 -160 -15 -193
50 -66 127 75 272 193 200z"/>
<path d="M2492 1777 c-45 -14 -118 -81 -144 -131 -34 -64 -31 -165 6 -234 46
-83 128 -132 223 -132 120 0 232 112 233 233 l0 47 -120 0 -120 0 0 -50 0 -50
55 0 c30 0 55 -4 55 -8 0 -22 -52 -55 -93 -59 -111 -13 -185 95 -138 201 43
99 164 116 227 32 l19 -24 47 27 47 27 -21 30 c-60 85 -176 123 -276 91z"/>
<path d="M354 1533 l-121 -248 240 -3 c132 -1 242 -1 244 2 2 2 -51 115 -119
251 l-124 247 -120 -249z"/>
</g>
</svg>
